<svg xmlns="http://www.w3.org/2000/svg" width="150" height="150" viewBox="0 0 150 150"><circle cx="75" cy="77" r="62" fill="#e3f1e3"/><ellipse cx="66" cy="24" rx="6" ry="13" fill="#4e7d4e" transform="rotate(-28 66 24)"/><ellipse cx="84" cy="24" rx="6" ry="13" fill="#6fa06f" transform="rotate(28 84 24)"/><ellipse cx="75" cy="13" rx="6" ry="14" fill="#4e944e"/><ellipse cx="55" cy="22" rx="5" ry="11" fill="#6fb86f" transform="rotate(-38 55 22)"/><ellipse cx="95" cy="22" rx="5" ry="11" fill="#6fb86f" transform="rotate(38 95 22)"/><g stroke="#4e8a55" stroke-width="3" stroke-linecap="round" fill="none"><path d="M75.0 27.0 Q78.4 20.0 75.0 13.0"/><path d="M91.4 29.9 Q97.0 24.5 96.2 16.7"/><path d="M105.9 38.2 Q113.0 35.1 114.9 27.5"/><path d="M116.6 51.0 Q124.3 50.4 128.7 44.0"/><path d="M122.3 66.7 Q129.8 68.8 136.1 64.2"/><path d="M122.3 83.3 Q128.6 87.9 136.1 85.8"/><path d="M116.6 99.0 Q120.9 105.4 128.7 106.0"/><path d="M105.9 111.8 Q107.7 119.3 114.9 122.5"/><path d="M91.4 120.1 Q90.6 127.8 96.2 133.3"/><path d="M75.0 123.0 Q71.6 130.0 75.0 137.0"/><path d="M58.6 120.1 Q53.0 125.5 53.8 133.3"/><path d="M44.1 111.8 Q37.0 114.9 35.1 122.5"/><path d="M33.4 99.0 Q25.7 99.6 21.3 106.0"/><path d="M27.7 83.3 Q20.2 81.2 13.9 85.8"/><path d="M27.7 66.7 Q21.4 62.1 13.9 64.2"/><path d="M33.4 51.0 Q29.1 44.6 21.3 44.0"/><path d="M44.1 38.2 Q42.3 30.7 35.1 27.5"/><path d="M58.6 29.9 Q59.4 22.2 53.8 16.7"/></g><circle cx="75" cy="75" r="50" fill="#5fa85f"/><circle cx="75" cy="77" r="34.0" fill="#b8e0b8"/><circle cx="58" cy="60" r="7" fill="#8cc08c"/><circle cx="95" cy="90" r="9" fill="#8cc08c"/><circle cx="97" cy="60" r="5" fill="#8cc08c"/><circle cx="60" cy="89" r="4" fill="#8cc08c"/><circle cx="63" cy="72" r="6.5" fill="#16210f"/><circle cx="87" cy="72" r="6.5" fill="#16210f"/><circle cx="65" cy="69.5" r="2.2" fill="#fff"/><circle cx="89" cy="69.5" r="2.2" fill="#fff"/><ellipse cx="55" cy="83" rx="5" ry="3.2" fill="#f2b6b6"/><ellipse cx="95" cy="83" rx="5" ry="3.2" fill="#f2b6b6"/><path d="M124 28 l3 7 7 3 -7 3 -3 7 -3 -7 -7 -3 7 -3 Z" fill="#f4c84a"/><path d="M20 38 l2 5 5 2 -5 2 -2 5 -2 -5 -5 -2 5 -2 Z" fill="#f4c84a"/><path d="M66 84 Q75 93 84 84" stroke="#16210f" stroke-width="3.4" fill="none" stroke-linecap="round"/></svg>